<svg width="17" height="17" viewBox="0 0 17 17" fill="none" xmlns="http://www.w3.org/2000/svg">
<path d="M7.69995 3.60498L9.34984 1.95747C10.0484 1.3217 10.9654 0.97914 11.9103 1.00098C12.8552 1.02283 13.7554 1.40739 14.4237 2.07476C15.092 2.74213 15.4771 3.64099 15.499 4.58454C15.5209 5.52809 15.1778 6.44378 14.5412 7.14132L12.183 9.48778C11.8431 9.82842 11.4392 10.0987 10.9945 10.2831C10.5498 10.4676 10.073 10.5625 9.59149 10.5625C9.10995 10.5625 8.63315 10.4676 8.18844 10.2831C7.74373 10.0987 7.33986 9.82842 7 9.48778" stroke="white" stroke-width="1.5" stroke-linecap="round" stroke-linejoin="round"/>
<path d="M8.80005 12.9575L7.15016 14.605C6.45162 15.2408 5.53461 15.5834 4.5897 15.5615C3.64479 15.5397 2.74464 15.1551 2.07631 14.4877C1.40798 13.8204 1.02286 12.9215 1.00099 11.978C0.97911 11.0344 1.32216 10.1187 1.95885 9.42119L4.31702 7.07472C4.65688 6.73408 5.06075 6.46379 5.50546 6.27936C5.95017 6.09494 6.42697 6 6.90851 6C7.39005 6 7.86685 6.09494 8.31156 6.27936C8.75627 6.46379 9.16014 6.73408 9.5 7.07472" stroke="white" stroke-width="1.5" stroke-linecap="round" stroke-linejoin="round"/>
</svg>
