<svg width="24" height="24" viewBox="0 0 24 24" fill="none" xmlns="http://www.w3.org/2000/svg">
<path d="M8 12H16" stroke="#212121" stroke-width="1.5" stroke-linecap="round" stroke-linejoin="round"/>
<path d="M12 8.5L12 15.5" stroke="#212121" stroke-width="1.5" stroke-linecap="round" stroke-linejoin="round"/>
<path d="M8.66683 15.9375H5.3335C4.27263 15.9375 3.25521 15.5227 2.50507 14.7842C1.75492 14.0458 1.3335 13.0443 1.3335 12C1.3335 10.9557 1.75492 9.95419 2.50507 9.21577C3.25521 8.47734 4.27263 8.0625 5.3335 8.0625H8.66683" stroke="#212121" stroke-width="1.5" stroke-linecap="round" stroke-linejoin="round"/>
<path d="M15.3335 15.9375H18.6668C19.7277 15.9375 20.7451 15.5227 21.4953 14.7842C22.2454 14.0458 22.6668 13.0443 22.6668 12C22.6668 10.9557 22.2454 9.95419 21.4953 9.21577C20.7451 8.47734 19.7277 8.0625 18.6668 8.0625H15.3335" stroke="#212121" stroke-width="1.5" stroke-linecap="round" stroke-linejoin="round"/>
</svg>
