<svg width="67.000000" height="47.000000" viewBox="0 0 67 47" fill="none" xmlns="http://www.w3.org/2000/svg" xmlns:xlink="http://www.w3.org/1999/xlink">
	<desc>
			Created with Pixso.
	</desc>
	<defs/>
	<path id="Vector" d="M22.94 -0.73C23.11 -0.76 23.26 -0.8 23.41 -0.8C24.02 -0.82 24.63 -0.86 25.24 -0.84C27.17 -0.8 28.93 -0.22 30.48 0.95C31.26 1.54 31.87 2.28 32.46 3.05C33.1 3.91 33.76 4.76 34.41 5.61C34.53 5.77 34.67 5.9 34.82 6.07C34.89 6 34.96 5.95 35 5.9C35.63 5.14 36.25 4.38 36.9 3.64C37.55 2.89 38.24 2.17 38.9 1.42C39.12 1.17 39.36 1.03 39.71 1.04C40.07 1.05 40.43 1.02 40.84 1.01C40.68 1.2 40.55 1.36 40.41 1.52C39.88 2.14 39.34 2.75 38.8 3.36C38.27 3.96 37.74 4.55 37.21 5.14C37.11 5.25 37.02 5.35 36.94 5.46C36.78 5.68 36.79 5.72 36.95 5.93C37.19 6.22 37.43 6.5 37.66 6.8C38.96 8.46 40.25 10.12 41.55 11.78C42.54 13.05 43.76 14.04 45.22 14.73C45.45 14.83 45.67 14.96 45.9 15.08C45.86 15.21 45.83 15.31 45.79 15.43C45.68 15.44 45.56 15.47 45.45 15.47C44.81 15.47 44.16 15.51 43.53 15.47C42.31 15.39 41.1 15.2 39.98 14.66C38.83 14.11 37.87 13.32 37.09 12.33C36.19 11.2 35.31 10.05 34.42 8.91C34.35 8.83 34.28 8.75 34.19 8.65C33.96 8.91 33.75 9.14 33.54 9.37C33 9.98 32.45 10.59 31.91 11.2C31.3 11.89 30.69 12.59 30.07 13.28C29.6 13.81 29.13 14.34 28.66 14.87C28.28 15.32 27.91 15.78 27.52 16.22C27.21 16.56 26.87 16.88 26.55 17.21C26.44 17.32 26.31 17.36 26.15 17.37C25.87 17.37 25.6 17.41 25.33 17.43C25.19 17.44 25.06 17.43 24.88 17.43C24.95 17.33 24.99 17.26 25.04 17.21C26.07 16.04 27.09 14.87 28.12 13.71C28.66 13.1 29.21 12.51 29.74 11.91C30.07 11.54 30.38 11.16 30.7 10.79C31.12 10.31 31.54 9.84 31.96 9.38C32.28 9.03 32.27 8.99 31.95 8.66C31.7 8.39 31.46 8.1 31.23 7.8C30.15 6.41 29.08 5.01 28 3.62C27.45 2.91 26.88 2.22 26.23 1.6C25.67 1.08 25.04 0.66 24.38 0.29C24.01 0.08 23.63 -0.11 23.26 -0.3C23.1 -0.38 22.98 -0.48 22.94 -0.73L22.94 -0.73Z" fill="#6417B0" fill-opacity="1.000000" fill-rule="evenodd"/>
	<path id="Vector" d="M53.83 34.7C53.49 34.64 53.28 34.46 53.09 34.24C52.3 33.27 51.5 32.31 50.7 31.35C49.74 30.2 48.78 29.05 47.83 27.9C47.32 27.3 46.82 26.69 46.32 26.09C46.24 25.99 46.14 25.91 46.06 25.83C46.04 25.83 46.01 25.84 45.99 25.85C45.98 25.98 45.97 26.12 45.97 26.25C45.98 28.24 46 30.23 46 32.22C46 32.79 45.98 33.36 45.97 33.93C45.96 34.2 45.92 34.25 45.65 34.29C45.51 34.31 45.38 34.33 45.23 34.35L45.23 23.39C45.87 23.46 46.41 23.67 46.82 24.16C47.4 24.85 47.99 25.52 48.56 26.21C49.58 27.42 50.59 28.64 51.61 29.86C51.94 30.26 52.27 30.67 52.61 31.06C52.7 31.16 52.8 31.25 52.91 31.35C53.05 31.19 53.02 31.02 53.02 30.87C53.02 29.73 53.02 28.59 53.02 27.44C53.02 26.38 53.02 25.32 53.02 24.25C53.02 23.76 53.24 23.51 53.76 23.43C53.87 27.18 53.74 30.92 53.83 34.7L53.83 34.7Z" fill="#6417B0" fill-opacity="1.000000" fill-rule="evenodd"/>
	<path id="Vector" d="M66.96 31.1C66.96 31.74 66.94 32.38 66.97 33.02C66.99 33.5 66.78 33.78 66.35 33.94C65.16 34.36 63.96 34.68 62.69 34.56C60.94 34.38 59.55 33.59 58.58 32.11C57.89 31.06 57.54 29.91 57.64 28.64C57.74 27.29 58.21 26.06 59.1 25.04C60.14 23.83 61.49 23.21 63.11 23.25C63.82 23.27 64.47 23.5 65.08 23.88C65.78 24.31 66.31 24.88 66.74 25.57C66.85 25.74 66.92 25.94 66.98 26.13C67.03 26.29 66.96 26.35 66.81 26.37C66.59 26.4 66.43 26.32 66.32 26.12C66.01 25.63 65.69 25.15 65.26 24.75C64.8 24.33 64.26 24.09 63.64 24.05C62.65 24 61.77 24.3 61.04 24.97C60.56 25.4 60.19 25.93 59.94 26.53C59.54 27.48 59.4 28.48 59.51 29.5C59.64 30.7 59.99 31.82 60.84 32.72C61.66 33.57 62.65 34.04 63.85 33.94C64.41 33.89 64.91 33.67 65.41 33.41C65.54 33.34 65.57 33.21 65.58 33.09C65.59 32.68 65.59 32.26 65.59 31.85C65.58 31.17 65.57 30.49 65.56 29.81C65.55 29.46 65.7 29.2 66 29.04C66.19 28.93 66.4 28.83 66.62 28.76C66.98 28.62 66.94 28.63 66.94 28.68C66.94 29.38 66.95 31.1 66.96 31.1L66.96 31.1Z" fill="#6417B0" fill-opacity="1.000000" fill-rule="evenodd"/>
	<path id="Vector" d="M29.39 29.44L29.39 28.88C29.52 28.86 29.65 28.83 29.77 28.82C30.11 28.79 30.46 28.78 30.8 28.76C31.23 28.74 31.57 28.56 31.87 28.26C32.49 27.61 32.71 26.84 32.49 25.98C32.36 25.45 32 25.06 31.61 24.71C31.25 24.4 30.82 24.26 30.36 24.24C29.88 24.22 29.4 24.23 28.91 24.24C28.57 24.25 28.54 24.31 28.54 24.66C28.54 27.53 28.54 30.41 28.54 33.28C28.54 33.88 28.45 34.01 27.88 34.15C27.56 34.23 27.24 34.25 26.96 34.3C26.91 34.26 26.9 34.26 26.89 34.25C26.89 34.25 26.88 34.24 26.88 34.23C26.87 34.2 26.86 34.17 26.86 34.14C26.85 30.58 26.86 27.01 26.86 23.45C26.86 23.42 26.87 23.39 26.89 23.34C26.97 23.34 27.05 23.32 27.14 23.32C28.24 23.32 29.35 23.29 30.45 23.32C31.2 23.35 31.94 23.48 32.63 23.78C33.7 24.24 34.27 25.08 34.44 26.22C34.52 26.73 34.46 27.21 34.23 27.68C34.08 28.01 33.86 28.28 33.58 28.51C32.78 29.18 31.82 29.39 30.81 29.43C30.46 29.45 30.1 29.45 29.75 29.46C29.64 29.46 29.54 29.45 29.39 29.44L29.39 29.44Z" fill="#6417B0" fill-opacity="1.000000" fill-rule="evenodd"/>
	<path id="Vector" d="M10.85 34.29C10.62 34.29 10.45 34.3 10.29 34.29C9.85 34.27 9.42 34.25 8.99 34.23C8.81 34.22 8.67 34.14 8.55 34.01C8.4 33.84 8.24 33.68 8.1 33.5C7.2 32.31 6.3 31.11 5.4 29.92C5.27 29.76 5.12 29.62 4.97 29.45C4.9 29.54 4.84 29.59 4.8 29.65C4.39 30.25 3.88 30.78 3.41 31.33C2.77 32.08 2.13 32.83 1.49 33.57C1.37 33.7 1.25 33.83 1.11 33.95C0.73 34.3 0.58 34.34 0 34.26C0.23 33.93 0.52 33.67 0.77 33.38C1.02 33.09 1.29 32.81 1.54 32.52C1.8 32.23 2.05 31.93 2.31 31.63C2.57 31.33 2.82 31.03 3.08 30.74C3.34 30.45 3.6 30.17 3.85 29.88C4.11 29.59 4.36 29.29 4.64 28.97C3.2 27.09 1.77 25.23 0.3 23.3C0.43 23.3 0.49 23.3 0.55 23.3C1.01 23.3 1.46 23.31 1.91 23.3C2.33 23.3 2.64 23.44 2.9 23.79C3.8 24.99 4.71 26.19 5.62 27.39C5.66 27.44 5.71 27.49 5.77 27.57C5.84 27.51 5.91 27.46 5.96 27.4C6.65 26.61 7.33 25.82 8.02 25.04C8.38 24.62 8.75 24.19 9.13 23.78C9.4 23.47 9.73 23.25 10.17 23.2C10.22 23.46 10.07 23.65 9.93 23.81C9.1 24.77 8.26 25.72 7.43 26.68C7.06 27.1 6.7 27.53 6.34 27.96C6.2 28.12 6.2 28.18 6.34 28.37C6.67 28.8 7.01 29.23 7.34 29.66C8.09 30.65 8.85 31.65 9.61 32.64C9.93 33.06 10.26 33.48 10.58 33.9C10.66 34.01 10.74 34.12 10.85 34.29L10.85 34.29Z" fill="#6417B0" fill-opacity="1.000000" fill-rule="evenodd"/>
	<path id="Vector" d="M13.85 23.28C14.55 23.25 15.24 23.68 15.5 24.24C15.57 24.4 15.59 24.6 15.59 24.79C15.59 26.45 15.57 28.12 15.57 29.78C15.57 30.19 15.58 30.61 15.64 31.02C15.81 32.36 16.51 33.29 17.83 33.71C18.58 33.95 19.32 33.86 20.05 33.56C21.11 33.12 21.74 32.35 21.82 31.2C21.89 30.28 21.87 29.35 21.88 28.43C21.88 26.95 21.87 25.47 21.86 23.99C21.86 23.85 21.9 23.75 22 23.65C22.17 23.49 22.36 23.35 22.61 23.26C22.62 23.35 22.64 23.42 22.64 23.49C22.63 25.88 22.62 28.28 22.61 30.67C22.6 31.66 22.3 32.53 21.62 33.25C21.22 33.67 20.73 33.96 20.19 34.17C19.44 34.46 18.66 34.61 17.85 34.58C17.25 34.56 16.69 34.4 16.15 34.14C15.26 33.73 14.58 33.09 14.18 32.2C13.99 31.78 13.9 31.33 13.89 30.88C13.85 29.97 13.83 29.07 13.83 28.16C13.82 26.64 13.83 25.11 13.84 23.58C13.84 23.49 13.85 23.39 13.85 23.28L13.85 23.28Z" fill="#6417B0" fill-opacity="1.000000" fill-rule="evenodd"/>
	<path id="Vector" d="M39.93 34.29C39.43 34.28 38.96 34.23 38.56 33.9C38.41 33.78 38.32 33.64 38.31 33.45C38.31 33.31 38.3 33.18 38.3 33.04C38.3 29.93 38.3 26.82 38.3 23.71C38.3 23.59 38.3 23.47 38.3 23.37C38.89 23.18 39.41 23.35 39.72 23.81C39.86 24 39.88 24.21 39.89 24.43C39.9 25.46 39.91 26.49 39.92 27.53C39.93 29.56 39.93 31.58 39.93 33.61C39.93 33.83 39.93 34.04 39.93 34.29Z" fill="#6417B0" fill-opacity="1.000000" fill-rule="evenodd"/>
	<path id="Vector" d="M2.12 42.98L2.12 42.71C2.16 42.7 2.19 42.68 2.21 42.68C4.9 42.67 7.59 42.65 10.28 42.64C10.66 42.64 11.04 42.66 11.43 42.67C11.55 42.68 11.65 42.69 11.64 42.84C11.64 43 11.53 43.01 11.42 43.02C11.01 43.03 10.61 43.04 10.21 43.04C7.69 43.04 5.17 43.03 2.64 43.02C2.48 43.02 2.31 43 2.12 42.98Z" fill="#6417B0" fill-opacity="1.000000" fill-rule="evenodd"/>
	<path id="Vector" d="M64.16 42.66C64.18 42.95 64.14 43.01 63.92 43.02C63.72 43.04 63.52 43.04 63.33 43.04C60.6 43.03 57.87 43.03 55.14 43.03C55.05 43.03 54.95 43.02 54.85 43.01C54.66 42.97 54.66 42.95 54.7 42.69C57.85 42.69 61.01 42.61 64.16 42.66L64.16 42.66Z" fill="#6417B0" fill-opacity="1.000000" fill-rule="evenodd"/>
	<path id="Vector" d="M15.51 41.35C15.51 41.03 15.47 40.7 15.47 40.7L16.12 40.67L16.12 44.54C16.12 44.82 16.09 45.03 16.01 45.25C15.67 45.93 14.81 46.11 14.81 46.11C15.06 45.76 15.34 45.53 15.45 45.15C15.49 44.99 15.51 44.79 15.51 44.54L15.51 41.35L15.51 41.35Z" fill="#6417B0" fill-opacity="1.000000" fill-rule="evenodd"/>
	<path id="Vector" d="M19.4 41.35C19.4 41.03 19.37 40.71 19.37 40.71L22.09 40.71L22.06 41.21C22.06 41.21 21.75 41.17 21.45 41.17L20.02 41.15L20.02 42.66L21.77 42.62L21.74 43.17L20.02 43.12L20.02 44.66L21.59 44.64C21.91 44.64 22.09 44.6 22.09 44.6L22.06 45.11L19.4 45.11L19.4 41.35L19.4 41.35Z" fill="#6417B0" fill-opacity="1.000000" fill-rule="evenodd"/>
	<path id="Vector" d="M27.73 40.68L28.46 43.48C28.59 43.99 28.66 44.44 28.66 44.44L28.68 44.44C28.68 44.44 28.76 44 28.92 43.48L29.41 41.8C29.55 41.34 29.58 41.06 29.62 40.71L30.22 40.71C30.15 41.15 30.06 41.57 29.88 42.1L28.93 45.1L28.31 45.13L27.58 42.34C27.47 41.93 27.41 41.51 27.41 41.51L27.39 41.51C27.39 41.51 27.33 41.91 27.23 42.33L26.56 45.1L25.89 45.13L24.81 41.47C24.67 41 24.57 40.73 24.57 40.73L25.23 40.69L26.02 43.5C26.13 43.91 26.24 44.45 26.24 44.45L26.26 44.45C26.26 44.45 26.36 43.91 26.46 43.49L27.14 40.71L27.73 40.68L27.73 40.68Z" fill="#6417B0" fill-opacity="1.000000" fill-rule="evenodd"/>
	<path id="Vector" d="M33.04 41.35C33.04 41.03 33 40.71 33 40.71L35.72 40.71L35.69 41.21C35.69 41.21 35.38 41.17 35.08 41.17L33.65 41.15L33.65 42.66L35.41 42.62L35.37 43.17L33.65 43.12L33.65 44.66L35.22 44.64C35.54 44.64 35.72 44.6 35.72 44.6L35.69 45.11L33.04 45.11L33.04 41.35L33.04 41.35Z" fill="#6417B0" fill-opacity="1.000000" fill-rule="evenodd"/>
	<path id="Vector" d="M41.39 45.11L38.73 45.11L38.73 41.35C38.73 41.03 38.7 40.71 38.7 40.71L39.35 40.68L39.35 44.66L40.89 44.64C41.2 44.63 41.42 44.6 41.42 44.6L41.39 45.11L41.39 45.11Z" fill="#6417B0" fill-opacity="1.000000" fill-rule="evenodd"/>
	<path id="Vector" d="M46.96 44.63L46.12 43.19C46.61 43.05 46.99 42.66 46.99 42.01C46.99 41.24 46.42 40.71 45.34 40.71L44.11 40.71C44.11 40.71 44.14 41.03 44.14 41.35L44.14 45.11L44.79 45.11C44.79 45.11 44.76 44.81 44.76 44.52L44.76 41.16L45.25 41.16C46.04 41.16 46.36 41.51 46.36 42.04C46.36 42.51 46.08 42.85 45.58 42.91L45.34 42.92L45.58 43.36L46.58 45.14L47.29 45.11C47.29 45.11 47.12 44.88 46.96 44.63Z" fill="#6417B0" fill-opacity="1.000000" fill-rule="evenodd"/>
	<path id="Vector" d="M50.91 43.36L49.74 41.29C49.57 41 49.38 40.71 49.38 40.71L50.08 40.68L51.3 42.9L52.05 41.46C52.29 40.99 52.38 40.71 52.38 40.71L52.99 40.71C52.99 40.71 52.85 41.11 52.49 41.7L51.53 43.35L51.53 44.52C51.53 44.81 51.56 45.11 51.56 45.11L50.91 45.11L50.91 43.36L50.91 43.36Z" fill="#6417B0" fill-opacity="1.000000" fill-rule="evenodd"/>
</svg>
