<svg width="24" height="24" viewBox="0 0 24 24" fill="none" xmlns="http://www.w3.org/2000/svg">
<path opacity="0.2" d="M19.2469 6.66547C19.0875 6.72233 18.9193 6.75088 18.7501 6.74985C18.3522 6.74985 17.9707 6.59181 17.6894 6.31051C17.4081 6.02921 17.2501 5.64768 17.2501 5.24985C17.249 5.08057 17.2776 4.91242 17.3344 4.75298C15.4735 3.38234 13.1566 2.78015 10.8638 3.07118C8.57098 3.36221 6.478 4.52416 5.01853 6.31626C3.55905 8.10836 2.84495 10.3933 3.02419 12.6975C3.20343 15.0018 4.26227 17.1487 5.98131 18.6936C6.54568 17.5822 7.40676 16.6488 8.46911 15.9969C9.53147 15.3449 10.7536 14.9998 12.0001 14.9998C11.2584 14.9998 10.5334 14.7799 9.91667 14.3679C9.29999 13.9558 8.81934 13.3701 8.53551 12.6849C8.25168 11.9997 8.17742 11.2457 8.32212 10.5183C8.46681 9.79083 8.82396 9.12265 9.34841 8.5982C9.87286 8.07375 10.541 7.7166 11.2685 7.5719C11.9959 7.42721 12.7499 7.50147 13.4351 7.7853C14.1203 8.06913 14.706 8.54978 15.1181 9.16646C15.5301 9.78315 15.7501 10.5082 15.7501 11.2498C15.7501 12.2444 15.355 13.1982 14.6517 13.9015C13.9485 14.6048 12.9946 14.9998 12.0001 14.9998C13.2465 14.9998 14.4687 15.3449 15.531 15.9969C16.5934 16.6488 17.4544 17.5822 18.0188 18.6936C19.6804 17.199 20.7264 15.1397 20.9534 12.9165C21.1804 10.6932 20.5721 8.465 19.2469 6.66547Z" fill="#212121"/>
<path d="M12 15C14.0711 15 15.75 13.3211 15.75 11.25C15.75 9.17893 14.0711 7.5 12 7.5C9.92893 7.5 8.25 9.17893 8.25 11.25C8.25 13.3211 9.92893 15 12 15Z" stroke="#212121" stroke-width="1.5" stroke-miterlimit="10"/>
<path d="M5.98145 18.6938C6.54574 17.5824 7.40678 16.6488 8.46914 15.9968C9.5315 15.3447 10.7537 14.9995 12.0002 14.9995C13.2467 14.9995 14.4689 15.3447 15.5312 15.9968C16.5936 16.6488 17.4547 17.5824 18.0189 18.6938" stroke="#212121" stroke-width="1.5" stroke-linecap="round" stroke-linejoin="round"/>
<path d="M18.75 6.75C19.5784 6.75 20.25 6.07843 20.25 5.25C20.25 4.42157 19.5784 3.75 18.75 3.75C17.9216 3.75 17.25 4.42157 17.25 5.25C17.25 6.07843 17.9216 6.75 18.75 6.75Z" stroke="#212121" stroke-width="1.5" stroke-linecap="round" stroke-linejoin="round"/>
<path d="M18.75 3.75V2.625" stroke="#212121" stroke-width="1.5" stroke-linecap="round" stroke-linejoin="round"/>
<path d="M17.4471 4.5L16.4814 3.9375" stroke="#212121" stroke-width="1.5" stroke-linecap="round" stroke-linejoin="round"/>
<path d="M17.4471 6L16.4814 6.5625" stroke="#212121" stroke-width="1.5" stroke-linecap="round" stroke-linejoin="round"/>
<path d="M18.75 6.75V7.875" stroke="#212121" stroke-width="1.5" stroke-linecap="round" stroke-linejoin="round"/>
<path d="M20.0532 6L21.0188 6.5625" stroke="#212121" stroke-width="1.5" stroke-linecap="round" stroke-linejoin="round"/>
<path d="M20.0532 4.5L21.0188 3.9375" stroke="#212121" stroke-width="1.5" stroke-linecap="round" stroke-linejoin="round"/>
<path d="M20.9344 10.922C20.9799 11.2796 21.0018 11.6397 21 12.0002C21 13.7802 20.4722 15.5203 19.4832 17.0003C18.4943 18.4803 17.0887 19.6339 15.4442 20.3151C13.7996 20.9963 11.99 21.1745 10.2442 20.8272C8.49836 20.48 6.89472 19.6228 5.63604 18.3641C4.37737 17.1055 3.5202 15.5018 3.17294 13.756C2.82567 12.0101 3.0039 10.2005 3.68509 8.55601C4.36628 6.91148 5.51983 5.50587 6.99987 4.51694C8.47991 3.528 10.22 3.00016 12 3.00016C12.2786 2.9984 12.5571 3.01092 12.8344 3.03766" stroke="#212121" stroke-width="1.5" stroke-linecap="round" stroke-linejoin="round"/>
</svg>
