<svg width="21" height="19" viewBox="0 0 21 19" fill="none" xmlns="http://www.w3.org/2000/svg">
<path d="M6.6002 10.255L15.0283 17.6466C15.1257 17.7325 15.2439 17.7917 15.3712 17.8184C15.4985 17.8451 15.6306 17.8383 15.7544 17.7987C15.8783 17.7591 15.9897 17.6881 16.0777 17.5926C16.1658 17.4971 16.2273 17.3805 16.2564 17.2541L19.7814 1.91025C19.811 1.77811 19.804 1.64045 19.7612 1.51196C19.7184 1.38347 19.6414 1.26899 19.5384 1.18072C19.4354 1.09245 19.3103 1.03372 19.1764 1.0108C19.0426 0.987871 18.905 1.00161 18.7783 1.05055L1.47207 7.82538C0.778321 8.09638 0.872072 9.10559 1.60332 9.25511L6.6002 10.255Z" stroke="white" stroke-width="1.5" stroke-linecap="round" stroke-linejoin="round"/>
<path d="M6.6001 10.2551L19.3595 1.06934" stroke="white" stroke-width="1.5" stroke-linecap="round" stroke-linejoin="round"/>
<path d="M10.8095 13.946L7.88447 16.8615C7.78012 16.9671 7.64662 17.0394 7.50094 17.0693C7.35526 17.0991 7.20398 17.0851 7.06632 17.029C6.92866 16.9729 6.81083 16.8773 6.72782 16.7543C6.6448 16.6313 6.60035 16.4865 6.6001 16.3382V10.2549" stroke="white" stroke-width="1.5" stroke-linecap="round" stroke-linejoin="round"/>
</svg>
